<svg xmlns="http://www.w3.org/2000/svg" viewBox="0 0 384 510.68"><defs><style>.cls-1{fill:#333;}.cls-2{fill:#503715;}.cls-3{fill:#fff;}</style></defs><g id="Layer_2" data-name="Layer 2"><g id="Layer_1-2" data-name="Layer 1"><path class="cls-1" d="M384,192c0,87.4-117,243-168.3,307.2a30.21,30.21,0,0,1-47.4,0C116.1,435,0,279.4,0,192,0,86,86,0,192,0S384,86,384,192Z"/><circle class="cls-2" cx="192" cy="188.14" r="138.53"/><path class="cls-3" d="M201.34,282.8H182.66V177a24.9,24.9,0,1,0-49.79,0v7.27c13.18,3.11,21.78,13.07,21.78,28.17,0,10.89-13.93,30.89-31.12,45.48-17.19-14.59-31.12-34.08-31.12-45.48,0-15.1,8.6-25.06,21.78-28.17V177a43.57,43.57,0,0,1,68.47-35.76v-14a43.58,43.58,0,0,1,87.15,0v7.27c13.19,3.12,21.78,13.08,21.78,28.17,0,10.89-13.92,30.89-31.12,45.48-17.19-14.59-31.12-34.08-31.12-45.48,0-15.09,8.6-25,21.78-28.17v-7.27a24.9,24.9,0,1,0-49.79,0Zm-90.26-70.37c0-.08,0,0,.06.11.23.78,1.31,4.4,5.73,10.78a96.91,96.91,0,0,0,6.65,8.44,67,67,0,0,0,6.66-8.83c4.32-5.91,5.45-9.49,5.72-10.35-.27-.19.08-.23.08-.15,0-4.63-1.48-6.69-2.61-7.71s-3.85-2.6-8.65-2.8a8.89,8.89,0,0,1-2.38,0c-4.8.2-7.42,1.68-8.67,2.8s-2.59,3.08-2.59,7.71Zm159.23-57.5c-1.32-1.25-4.28-2.84-9.84-2.84s-8.52,1.59-9.84,2.84c-1.13,1-2.61,3.07-2.61,7.7,0-.08,0,0,0,.12.23.77,1.32,4.39,5.76,10.77,1.91,2.73,4.12,5.61,6.3,8.45a48,48,0,0,0,7-8.84c4.32-5.91,5.45-9.49,5.72-10.34-.27-.2.08-.24.08-.16,0-4.63-1.48-6.69-2.61-7.7Z"/></g></g></svg>