<svg xmlns="http://www.w3.org/2000/svg" viewBox="0 0 384 510.68"><defs><style>.cls-1{fill:#333;}.cls-2{fill:#877600;}.cls-3{fill:#fff;}</style></defs><g id="Layer_2" data-name="Layer 2"><g id="Layer_1-2" data-name="Layer 1"><path class="cls-1" d="M384,192c0,87.4-117,243-168.3,307.2a30.21,30.21,0,0,1-47.4,0C116.1,435,0,279.4,0,192,0,86,86,0,192,0S384,86,384,192Z"/><circle class="cls-2" cx="192" cy="188.14" r="138.53"/><path class="cls-3" d="M196.86,97.81c-33,0-58.81,25.79-58.81,58.81H255.68A58.48,58.48,0,0,0,196.86,97.81Zm-91.57,86.55H218a8.14,8.14,0,1,0,0-16.27H105.29c-4.33-.63-8.13,3.17-8.13,7.82A8.42,8.42,0,0,0,105.29,184.36Zm138.32-8.45a8.22,8.22,0,0,0,8.45,8.13h39.43a8.14,8.14,0,1,0,0-16.27H252.06A8,8,0,0,0,243.61,175.91ZM145,229.42H105.29a8.46,8.46,0,0,0,0,16.9h39.43a8.45,8.45,0,1,0,.32-16.9Zm146.45,0H178.84a8.41,8.41,0,0,0-8.45,8.13c0,4.33,3.8,8.77,8.45,8.77H291.49a8.42,8.42,0,0,0,8.45-8.14C299.94,233.85,296.14,229.42,291.49,229.42Zm-14.08-22.53a8.21,8.21,0,0,0-8.45-8.14H83.08a8,8,0,0,0-8.45,8.14A8.14,8.14,0,0,0,82.76,215H268.65A8.11,8.11,0,0,0,277.41,206.89Z"/></g></g></svg>