<svg xmlns="http://www.w3.org/2000/svg" viewBox="0 0 384 510.68"><defs><style>.cls-1{fill:#333;}.cls-2{fill:#358300;}.cls-3{fill:#fff;}</style></defs><g id="Layer_2" data-name="Layer 2"><g id="Layer_1-2" data-name="Layer 1"><path class="cls-1" d="M384,192c0,87.4-117,243-168.3,307.2a30.21,30.21,0,0,1-47.4,0C116.1,435,0,279.4,0,192,0,86,86,0,192,0S384,86,384,192Z"/><circle class="cls-2" cx="192" cy="188.14" r="138.53"/><path class="cls-3" d="M280.19,188.69l.28,62.69a25.08,25.08,0,0,1-25.06,25.18H207.59l-15-25.06,31.65-26.35a6.29,6.29,0,0,0-.12-9.75l-46.17-36.27a6.25,6.25,0,0,0-8.93,8.62l23.57,32.42-33.48,27.89c-2.35,2-3.29,5.05-1.33,8.06L170,276.56H129.94a25.08,25.08,0,0,1-25.07-25.06V188.69H92.33a12.41,12.41,0,0,1-12.56-12.57,12.74,12.74,0,0,1,3.92-9.4L184.1,79.21c2.74-2.75,5.87-3.14,8.61-3.14A13.17,13.17,0,0,1,201,78.81l100,87.91c3.13,2.74,4.74,5.88,4.31,9.4a12.66,12.66,0,0,1-12.54,12.57Z"/></g></g></svg>