<svg xmlns="http://www.w3.org/2000/svg" viewBox="0 0 384 510.68"><defs><style>.cls-1{fill:#333;}.cls-2{fill:#5165b2;}.cls-3{fill:#fff;}</style></defs><g id="Layer_2" data-name="Layer 2"><g id="Layer_1-2" data-name="Layer 1"><path class="cls-1" d="M384,192c0,87.4-117,243-168.3,307.2a30.21,30.21,0,0,1-47.4,0C116.1,435,0,279.4,0,192,0,86,86,0,192,0S384,86,384,192Z"/><circle class="cls-2" cx="192" cy="188.14" r="138.53"/><path class="cls-3" d="M261.56,125a11.44,11.44,0,0,1-6.72,20.68h-5.92l.1,26.14a16.88,16.88,0,0,0-1.6,1c-6.43,4.43-14.36,7.29-21.15,7.29-7,0-14.56-2.75-21.14-7.29a22.89,22.89,0,0,0-26.28,0c-6.14,4.21-13.57,7.29-21.14,7.29-7.1,0-14.71-2.86-21.1-7.29-.57-.39-1.15-1.07-1.75-1.11V145.65h-5.72A11.44,11.44,0,0,1,122.42,125l62.86-45.7a11.39,11.39,0,0,1,13.43,0Zm-76.17,62.78a11.37,11.37,0,0,1,13.21,0c7.71,5.53,17.85,9.32,27.67,9.32,9.61,0,19.79-3.86,27.64-9.32h0a11.38,11.38,0,0,1,14,.6,44.85,44.85,0,0,0,18.07,9,11.46,11.46,0,0,1,8.53,13.75,11.6,11.6,0,0,1-13.75,8.54A70.27,70.27,0,0,1,260,210.71c-10.35,5.53-22,9.21-33.75,9.21-11.39,0-21.64-3.53-28.71-6.75-2.1-.93-4-1.89-5.57-2.75-1.6.86-3.46,1.82-5.57,2.75-7.07,3.22-17.32,6.75-28.71,6.75-12.1,0-23.39-3.68-33.74-9.21a70.07,70.07,0,0,1-20.8,8.93A11.44,11.44,0,0,1,98,197.35a44.88,44.88,0,0,0,18.06-9,11.38,11.38,0,0,1,14-.6h0c7.89,5.46,18,9.32,27.64,9.32,9.82,0,19.64-3.79,27.68-9.32Zm68.52,40h0a11.39,11.39,0,0,1,14,.61,44.85,44.85,0,0,0,18.07,9,11.46,11.46,0,0,1,8.53,13.75,11.6,11.6,0,0,1-13.75,8.53A70.27,70.27,0,0,1,260,250.7c-10.35,5.54-22,9.22-33.75,9.22-11.39,0-21.64-3.54-28.71-6.75-2.1-.93-4-1.89-5.57-2.75-1.6.86-3.46,1.82-5.57,2.75-7.07,3.21-17.32,6.75-28.71,6.75-12.1,0-23.39-3.68-33.74-9.22a70.07,70.07,0,0,1-20.8,8.93A11.44,11.44,0,0,1,98,237.35a44.88,44.88,0,0,0,18.06-9,11.39,11.39,0,0,1,14-.61h0c7.89,5.47,18,9.32,27.64,9.32,9.82,0,19.64-3.78,27.68-9.32a11.37,11.37,0,0,1,13.21,0c7.71,5.54,17.85,9.32,27.67,9.32,9.61,0,19.79-3.85,27.64-9.32Z"/></g></g></svg>