<svg xmlns="http://www.w3.org/2000/svg" viewBox="0 0 384 510.68"><defs><style>.cls-1{fill:#333;}.cls-2{fill:#fff;}</style></defs><g id="Layer_2" data-name="Layer 2"><g id="Layer_1-2" data-name="Layer 1"><path class="cls-1" d="M384,192c0,87.4-117,243-168.3,307.2a30.21,30.21,0,0,1-47.4,0C116.1,435,0,279.4,0,192,0,86,86,0,192,0S384,86,384,192Z"/><path class="cls-2" d="M312.05,173l-101-101.4c-9.22-8.74-24.27-8.74-33,0L77.63,173a22.52,22.52,0,0,0,0,32.49l101,100.91a22.54,22.54,0,0,0,32.52,0l101-100.91A22.49,22.49,0,0,0,312.05,173ZM183.21,138.28a11.64,11.64,0,1,1,23.27,0v54.31a11.64,11.64,0,0,1-23.27,0Zm11.64,112.5a15.52,15.52,0,1,1,15.51-15.52A15.53,15.53,0,0,1,194.85,250.78Z"/></g></g></svg>