<svg xmlns="http://www.w3.org/2000/svg" viewBox="0 0 384 510.68"><defs><style>.cls-1{fill:#333;}.cls-2{fill:#666;}.cls-3{fill:#fff;}</style></defs><g id="Layer_2" data-name="Layer 2"><g id="Layer_1-2" data-name="Layer 1"><path class="cls-1" d="M384,192c0,87.4-117,243-168.3,307.2a30.21,30.21,0,0,1-47.4,0C116.1,435,0,279.4,0,192,0,86,86,0,192,0S384,86,384,192Z"/><circle class="cls-2" cx="192" cy="188.14" r="138.53"/><path class="cls-3" d="M185.72,126.68a5.42,5.42,0,0,1,0-5.24l9.05-16.08a5.36,5.36,0,0,1,4.69-2.73h17.82a5.36,5.36,0,0,1,4.68,2.73l9,16.08a5.42,5.42,0,0,1,0,5.24l-9,16.08a5.31,5.31,0,0,1-4.68,2.74H199.46a5.31,5.31,0,0,1-4.69-2.74Zm57.51,113.85a13.26,13.26,0,0,1-9.17,22.88H128a26.8,26.8,0,0,1-26.8-26.8V130.53a13.4,13.4,0,0,1,22.87-9.47ZM254,218.06a5.35,5.35,0,0,1-2.75-4.69V195.55a5.33,5.33,0,0,1,2.75-4.69l16.07-9.05a5.39,5.39,0,0,1,5.23,0l16.08,9.05a5.32,5.32,0,0,1,2.74,4.69v17.82a5.34,5.34,0,0,1-2.74,4.69l-16.08,9a5.39,5.39,0,0,1-5.23,0Zm-88.5-104.71a10.72,10.72,0,1,1-10.72-10.72A10.71,10.71,0,0,1,165.49,113.35Zm53.59,64.31a10.72,10.72,0,1,1,10.72,10.72A10.71,10.71,0,0,1,219.08,177.66Z"/></g></g></svg>