<svg xmlns="http://www.w3.org/2000/svg" viewBox="0 0 384 510.68"><defs><style>.cls-1{fill:#333;}.cls-2{fill:#667e00;}.cls-3{fill:#fff;}</style></defs><g id="Layer_2" data-name="Layer 2"><g id="Layer_1-2" data-name="Layer 1"><path class="cls-1" d="M384,192c0,87.4-117,243-168.3,307.2a30.21,30.21,0,0,1-47.4,0C116.1,435,0,279.4,0,192,0,86,86,0,192,0S384,86,384,192Z"/><circle class="cls-2" cx="192" cy="188.14" r="138.53"/><path class="cls-3" d="M308.81,193.37a68.73,68.73,0,0,0-30.11-37.51,65.12,65.12,0,0,0-22.44-8.07,69.26,69.26,0,0,0-12.59-68.42,3.19,3.19,0,0,0-4.06-.71,3.44,3.44,0,0,0-1.47,4,49.88,49.88,0,0,1,2.69,15.63c0,27.51-21.84,49.88-48.74,49.88s-48.74-22.38-48.74-49.88A51.31,51.31,0,0,1,146,82.62a3.44,3.44,0,0,0-1.47-4,3.19,3.19,0,0,0-4.06.71,70.93,70.93,0,0,0-16.66,45.56,69.65,69.65,0,0,0,4.06,22.84,66.14,66.14,0,0,0-22.46,8.07,69.56,69.56,0,0,0-30.21,37.51,3.38,3.38,0,0,0,1.43,4,3.17,3.17,0,0,0,4.06-.6,47.32,47.32,0,0,1,11.88-10.21c23.25-13.75,53.12-5.58,66.57,18.28a50.68,50.68,0,0,1-17.83,68.15,47.44,47.44,0,0,1-14.57,5.43,3.44,3.44,0,0,0-2.59,3.3,3.34,3.34,0,0,0,2.64,3.25A66.12,66.12,0,0,0,192,260.64a66.27,66.27,0,0,0,65.18,24.26,3.28,3.28,0,0,0,2.64-3.25,3.37,3.37,0,0,0-2.59-3.3,45.52,45.52,0,0,1-14.52-5.43c-23.3-13.76-31.28-44.35-17.87-68.15s43.3-32,66.61-18.28a49.31,49.31,0,0,1,11.83,10.21,3.28,3.28,0,0,0,5.49-3.33ZM191.67,208.23a19.49,19.49,0,1,1,19.5-19.49A19.27,19.27,0,0,1,191.67,208.23Zm39.77,23.36a37.48,37.48,0,0,0,11.05,24.74A84.27,84.27,0,0,0,276.24,194a34.54,34.54,0,0,0-26.63,3.56C247.56,211,241,222.45,231.44,231.59ZM178,132.08a52.82,52.82,0,0,1,28.23,0,36.55,36.55,0,0,0,19.29-21,84.64,84.64,0,0,0-66.76,0C162.11,120.09,169.05,128.1,178,132.08ZM141.59,256.32a37.41,37.41,0,0,0,11-24.78,58.12,58.12,0,0,1-18.16-33.95A34.54,34.54,0,0,0,107.83,194,84.19,84.19,0,0,0,141.59,256.32Z"/></g></g></svg>