<svg xmlns="http://www.w3.org/2000/svg" width='40' height='40' viewBox="0 0 232 443.22"><defs><style>.cls-1{fill:#ff4b2b;stroke:#333;stroke-miterlimit:10;stroke-width:2px;}</style></defs><g id="Layer_2" data-name="Layer 2"><g id="Layer_1-2" data-name="Layer 1"><path class="cls-1" d="M231,116A115,115,0,1,1,116,1,115,115,0,0,1,231,116ZM128.78,52.11A12.8,12.8,0,0,0,116,39.33,76.22,76.22,0,0,0,39.33,116a12.78,12.78,0,0,0,25.56,0A51.16,51.16,0,0,1,116,64.89,12.8,12.8,0,0,0,128.78,52.11ZM84,410.22V247.32c10.4,1.9,21.1,2,32,2s21.6-.1,32-2v162.9a32,32,0,0,1-64,0Z"/></g></g></svg>