<svg xmlns="http://www.w3.org/2000/svg" viewBox="0 0 384 510.68"><defs><style>.cls-1{fill:#333;}.cls-2{fill:#0075a1;}.cls-3,.cls-4{fill:#fff;}.cls-4{stroke:#0075a1;stroke-miterlimit:10;stroke-width:9px;}</style></defs><g id="Layer_2" data-name="Layer 2"><g id="Layer_1-2" data-name="Layer 1"><path class="cls-1" d="M384,192c0,87.4-117,243-168.3,307.2a30.21,30.21,0,0,1-47.4,0C116.1,435,0,279.4,0,192,0,86,86,0,192,0S384,86,384,192Z"/><circle class="cls-2" cx="192" cy="182.14" r="138.53"/><path class="cls-3" d="M247.17,153,197.25,74.74c-2.34-3.66-8.45-3.66-10.78,0L136.54,153a12.51,12.51,0,0,0-.38,12.85,13,13,0,0,0,11,6.44h89.37A12.55,12.55,0,0,0,247.17,153ZM191.85,78.31l16.07,25.1H191.85l-10.74,14.33-6.89-11.8Z"/><path class="cls-3" d="M250.54,184.52a12.5,12.5,0,0,1,12.38,12.37,12.35,12.35,0,0,1-1.9,6.58l-48,76.47a8,8,0,0,1-13.61,0l-27.88-44.43L160.87,253a4.76,4.76,0,0,1-4.23,2.37,5,5,0,0,1-4.23-2.37l-29.23-47.91a13.54,13.54,0,0,1,11.56-20.57Z"/><path class="cls-4" d="M185.39,166.75a11.37,11.37,0,0,1,13.21,0c7.71,5.53,17.85,9.32,27.67,9.32,9.61,0,19.79-3.86,27.64-9.32h0a11.38,11.38,0,0,1,14,.6,44.85,44.85,0,0,0,18.07,9,11.46,11.46,0,0,1,8.53,13.75,11.6,11.6,0,0,1-13.75,8.54A70.27,70.27,0,0,1,260,189.71c-10.35,5.53-22,9.21-33.75,9.21-11.39,0-21.64-3.53-28.71-6.75-2.1-.93-4-1.89-5.57-2.75-1.6.86-3.46,1.82-5.57,2.75-7.07,3.22-17.32,6.75-28.71,6.75-12.1,0-23.39-3.68-33.74-9.21a70.07,70.07,0,0,1-20.8,8.93A11.44,11.44,0,0,1,98,176.35a44.88,44.88,0,0,0,18.06-9,11.38,11.38,0,0,1,14-.6h0c7.89,5.46,18,9.32,27.64,9.32,9.82,0,19.64-3.79,27.68-9.32Z"/></g></g></svg>