<svg xmlns="http://www.w3.org/2000/svg" viewBox="0 0 384 510.68"><defs><style>.cls-1{fill:#333;}.cls-2{fill:#00807b;}.cls-3{fill:#fff;}</style></defs><g id="Layer_2" data-name="Layer 2"><g id="Layer_1-2" data-name="Layer 1"><path class="cls-1" d="M384,192c0,87.4-117,243-168.3,307.2a30.21,30.21,0,0,1-47.4,0C116.1,435,0,279.4,0,192,0,86,86,0,192,0S384,86,384,192Z"/><circle class="cls-2" cx="192" cy="188.14" r="138.53"/><path class="cls-3" d="M193,171.28a14.33,14.33,0,1,0,14.33,14.32A14.52,14.52,0,0,0,193,171.28Zm-7.16-56.9,11-33.46A7.26,7.26,0,0,0,189,71.47c-46.17,5.49-82,45.42-82,93.05a93.1,93.1,0,0,0,93.1,93.1l-11,33.45a7.26,7.26,0,0,0,7.77,9.46c45.76-5.48,82-45.41,82-93A93.1,93.1,0,0,0,185.84,114.38ZM193,228.57a43,43,0,1,1,43-43A43,43,0,0,1,193,228.57Z"/></g></g></svg>