<svg xmlns="http://www.w3.org/2000/svg" viewBox="0 0 384 510.68"><defs><style>.cls-1{fill:#333;}.cls-2{fill:#00849c;}.cls-3{fill:#fff;}</style></defs><g id="Layer_2" data-name="Layer 2"><g id="Layer_1-2" data-name="Layer 1"><path class="cls-1" d="M384,192c0,87.4-117,243-168.3,307.2a30.21,30.21,0,0,1-47.4,0C116.1,435,0,279.4,0,192,0,86,86,0,192,0S384,86,384,192Z"/><circle class="cls-2" cx="192" cy="189.14" r="138.53"/><path class="cls-3" d="M283.32,241.41a13.31,13.31,0,0,1-18.22,4.79l-10.44-6.09,2.24,8.44a10,10,0,0,1-19.32,5.12l-7.37-27.83-24.9-14.54v29.32l20.12,20.32A10,10,0,1,1,211.23,275l-5.92-6v12.26a13.32,13.32,0,0,1-26.64,0V269l-5.91,6a10,10,0,0,1-14.2-14l20.12-20.33-.35-29.33-24.9,14.52-7.38,27.83a10,10,0,0,1-9.65,7.42,9.49,9.49,0,0,1-2.56-.34,10,10,0,0,1-7.1-12.2l2.23-8.44-10.43,6.09A11,11,0,0,1,112.2,248a13.31,13.31,0,0,1-6.74-24.8l10.8-6.3-8.45-2.29A10,10,0,1,1,113,195.37l27.4,7.45,25.16-14.68-25.16-14.68L113,180.9a10,10,0,1,1-5.23-19.25l8.45-2.29L105.46,153a13.31,13.31,0,1,1,13.44-23l10.43,6.08-2.23-8.43a10.06,10.06,0,0,1,6.73-12.19c5.74-1.45,10.81,1.76,12.6,7.08l7.38,27.82L178.33,165V135.66l-19.76-20.34a10,10,0,0,1,14.22-14l5.92,6L178.33,95A13.32,13.32,0,0,1,205,95v12.27l5.92-6a10,10,0,0,1,14.2,14L205,135.64l.35,29.34,24.9-14.53,7.37-27.83a10,10,0,0,1,19.32,5.12l-2.23,8.44,10.43-6.09a13.31,13.31,0,1,1,13.44,23l-10.8,6.3,8.45,2.29a10,10,0,0,1-2.6,19.61,10.26,10.26,0,0,1-2.62-.35l-27.78-7.46-24.78,14.68,25.14,14.67L271,195.38a10,10,0,1,1,5.24,19.26l-8.46,2.29,10.8,6.3A13.29,13.29,0,0,1,283.32,241.41Z"/></g></g></svg>