<svg xmlns="http://www.w3.org/2000/svg" viewBox="0 0 384 510.68"><defs><style>.cls-1{fill:#333;}.cls-2{fill:#d41700;}.cls-3{fill:#fff;}</style></defs><g id="Layer_2" data-name="Layer 2"><g id="Layer_1-2" data-name="Layer 1"><path class="cls-1" d="M384,192c0,87.4-117,243-168.3,307.2a30.21,30.21,0,0,1-47.4,0C116.1,435,0,279.4,0,192,0,86,86,0,192,0S384,86,384,192Z"/><circle class="cls-2" cx="192" cy="189.14" r="138.53"/><path class="cls-3" d="M159.57,158.29a20.57,20.57,0,1,0,20.57,20.56A20.44,20.44,0,0,0,159.57,158.29Zm92.55,52.35V142.86a5.14,5.14,0,0,0-10.28,0v67.78a15.77,15.77,0,0,0-10.28,14.49,15.43,15.43,0,0,0,30.85,0A15,15,0,0,0,252.12,210.64ZM283,196.37V142.86a36,36,0,0,0-72,0v53.51c-6.07,7.9-10.28,17.83-10.28,28.76A46.28,46.28,0,0,0,247,271.4c25.55,0,46.57-20.72,46.57-46.27A44.26,44.26,0,0,0,283,196.37Zm-36,54.47a25.66,25.66,0,0,1-15.43-46.2V142.86a15.43,15.43,0,0,1,30.86,0v61.8A25.65,25.65,0,0,1,247,250.84ZM200.71,193v-50.1a46,46,0,0,1,2.85-15.46l-26.31,8.79-13-26.63a4.91,4.91,0,0,0-8.75,0L141.9,136.19l-28-9.43a4.9,4.9,0,0,0-6.19,6.18l9.44,28.24-26.63,13.3a4.89,4.89,0,0,0,0,8.72l26.63,13.33-9.44,28.24a4.89,4.89,0,0,0,6.19,6.18l28.24-9.45,13.3,26.64a4.89,4.89,0,0,0,8.72,0l13.29-26.64,13.22,4.38c0-.24,0-.52,0-.8A53.48,53.48,0,0,1,200.71,193ZM138,200.67a30.86,30.86,0,1,1,43.64,0A30.9,30.9,0,0,1,138,200.67Z"/></g></g></svg>