<svg xmlns="http://www.w3.org/2000/svg" viewBox="0 0 384 510.68"><defs><style>.cls-1{fill:#333;}.cls-2{fill:#e56400;}.cls-3{fill:#fff;}</style></defs><g id="Layer_2" data-name="Layer 2"><g id="Layer_1-2" data-name="Layer 1"><path class="cls-1" d="M384,192c0,87.4-117,243-168.3,307.2a30.21,30.21,0,0,1-47.4,0C116.1,435,0,279.4,0,192,0,86,86,0,192,0S384,86,384,192Z"/><circle class="cls-2" cx="192" cy="188.14" r="138.53"/><path class="cls-3" d="M209.3,162.69H174.7a11.37,11.37,0,0,0-9,4.39L145.8,192.47l4.74,5.9c3.46,4.36,10.79,4.36,14.33,0a20.36,20.36,0,0,1,15.77-7.69c6.13-.54,12,2.5,16,7.15L208,211a9.48,9.48,0,0,0,13.94,0L238,192.2l-19.67-25.11A11.52,11.52,0,0,0,209.3,162.69Zm-51.94-28.6a22.63,22.63,0,0,0,12.42-3.72l10.46,20.88h22.88l10.46-20.88a24.68,24.68,0,0,0,12.74,3.72,22.89,22.89,0,1,0-14.75-40.27,22.69,22.69,0,0,0-39.16,0,23.62,23.62,0,0,0-15-5.5,22.89,22.89,0,0,0,0,45.77ZM281.2,247.34l-36-46-14.66,17a20.52,20.52,0,0,1-31.26,0l-11.31-13.14a9.21,9.21,0,0,0-7-3.22h-.14a9.26,9.26,0,0,0-7,3.49c-7.91,9.83-24.35,9.83-32.22,0l-3-3.8-35.79,45.62A11.46,11.46,0,0,0,112,265.65H272.08A11.43,11.43,0,0,0,281.2,247.34Z"/></g></g></svg>