<svg xmlns="http://www.w3.org/2000/svg" viewBox="0 0 384 510.68"><defs><style>.cls-1{fill:#333;}.cls-2{fill:#df9600;}.cls-3{fill:#fff;}</style></defs><g id="Layer_2" data-name="Layer 2"><g id="Layer_1-2" data-name="Layer 1"><path class="cls-1" d="M384,192c0,87.4-117,243-168.3,307.2a30.21,30.21,0,0,1-47.4,0C116.1,435,0,279.4,0,192,0,86,86,0,192,0S384,86,384,192Z"/><circle class="cls-2" cx="192" cy="189.14" r="138.53"/><path class="cls-3" d="M294.57,189.14A102.57,102.57,0,1,0,192,291.7,102.57,102.57,0,0,0,294.57,189.14Zm-102.57,0a38.46,38.46,0,1,0-76.92,0,76.92,76.92,0,1,1,153.84,0,38.46,38.46,0,1,1-76.92,0Z"/></g></g></svg>