<svg xmlns="http://www.w3.org/2000/svg" viewBox="0 0 384 510.68"><defs><style>.cls-1{fill:#333;}.cls-2{fill:#c92300;}.cls-3{fill:#fff;}</style></defs><g id="Layer_2" data-name="Layer 2"><g id="Layer_1-2" data-name="Layer 1"><path class="cls-1" d="M384,192c0,87.4-117,243-168.3,307.2a30.21,30.21,0,0,1-47.4,0C116.1,435,0,279.4,0,192,0,86,86,0,192,0S384,86,384,192Z"/><circle class="cls-2" cx="192" cy="188.14" r="138.53"/><path class="cls-3" d="M235.32,103.12A247.71,247.71,0,0,0,212,128a326.72,326.72,0,0,0-41.28-46.13C130,119.68,101,169,101,198.77c0,52.86,41.61,95.66,93,95.66s93-42.8,93-95.66C287,176.68,265.42,131,235.32,103.12Zm-8.06,141.45a55.91,55.91,0,0,1-32,10c-30,0-54.35-19.82-54.35-52,0-16,10.06-30.16,30.2-54.31,2.91,3.32,41.06,52.07,41.06,52.07l24.34-27.77c1.71,2.8,3.27,5.61,4.67,8.26C252.51,202.5,247.73,230.24,227.26,244.57Z"/></g></g></svg>